<svg width="44" height="42" viewBox="0 0 44 42" fill="none" xmlns="http://www.w3.org/2000/svg">
<g clip-path="url(#clip0_1_15232)">
<path d="M30.9616 5.00551C31.2913 5.45739 31.3388 6.04793 31.1003 6.7626L30.3982 8.88236C29.54 11.4821 28.3618 15.0419 27.9536 16.2016C27.2632 18.1585 26.3148 18.4746 24.3124 18.4746H12.0612L12.3997 19.7071L12.4578 19.9204C12.71 20.8465 12.7371 20.9434 14.0093 20.9434H29.1628C29.3685 20.9434 29.5659 21.0252 29.7113 21.1707C29.8568 21.3161 29.9386 21.5135 29.9386 21.7192C29.9386 21.9249 29.8568 22.1223 29.7113 22.2677C29.5659 22.4132 29.3685 22.495 29.1628 22.495H14.0093C11.7228 22.495 11.3184 21.6358 10.9616 20.3287L10.9053 20.126C10.564 18.9042 7.08474 6.10223 6.42147 3.62272C5.97347 1.94902 5.48087 1.96745 4.65565 2.01399C4.5199 2.02078 4.38802 2.0266 4.26002 2.0266H0.795289C0.589545 2.0266 0.392228 1.94487 0.246745 1.79938C0.101263 1.6539 0.0195313 1.45658 0.0195312 1.25084C0.0195313 1.0451 0.101263 0.84778 0.246745 0.702297C0.392228 0.556814 0.589545 0.475083 0.795289 0.475083H4.26002C4.36377 0.475083 4.47044 0.469265 4.57905 0.463446C5.81541 0.405265 7.20693 0.560416 7.92062 3.22126C8.41517 5.07339 10.4835 12.6874 11.6375 16.9231H24.3114C25.9075 16.9231 26.0908 16.8193 26.4913 15.6848C26.8947 14.5405 28.1165 10.8431 28.9252 8.39557L29.6283 6.2729C29.7204 5.99557 29.6952 5.89569 29.6952 5.89472C29.5497 5.79581 28.7701 5.80745 28.3958 5.8123L28.0544 5.8152H12.9C12.6943 5.8152 12.497 5.73347 12.3515 5.58799C12.206 5.44251 12.1243 5.24519 12.1243 5.03945C12.1243 4.8337 12.206 4.63639 12.3515 4.4909C12.497 4.34542 12.6943 4.26369 12.9 4.26369L28.3754 4.26078C29.2792 4.2472 30.3972 4.2346 30.9616 5.00551ZM25.508 8.83096C25.508 8.93284 25.488 9.03371 25.449 9.12783C25.41 9.22195 25.3528 9.30747 25.2808 9.37951C25.2088 9.45154 25.1232 9.50868 25.0291 9.54767C24.935 9.58665 24.8341 9.60672 24.7323 9.60672H13.7281C13.5224 9.60672 13.3251 9.52499 13.1796 9.37951C13.0341 9.23402 12.9524 9.03671 12.9524 8.83096C12.9524 8.62522 13.0341 8.4279 13.1796 8.28242C13.3251 8.13694 13.5224 8.0552 13.7281 8.0552H24.7323C24.8341 8.0552 24.935 8.07527 25.0291 8.11426C25.1232 8.15324 25.2088 8.21038 25.2808 8.28242C25.3528 8.35445 25.41 8.43997 25.449 8.53409C25.488 8.62821 25.508 8.72909 25.508 8.83096ZM14.4127 11.9243H23.9429C24.1487 11.9243 24.346 12.006 24.4915 12.1515C24.637 12.297 24.7187 12.4943 24.7187 12.7001C24.7187 12.9058 24.637 13.1031 24.4915 13.2486C24.346 13.3941 24.1487 13.4758 23.9429 13.4758H14.4127C14.207 13.4758 14.0097 13.3941 13.8642 13.2486C13.7187 13.1031 13.637 12.9058 13.637 12.7001C13.637 12.4943 13.7187 12.297 13.8642 12.1515C14.0097 12.006 14.207 11.9243 14.4127 11.9243ZM14.1771 27.6421C14.5193 27.6261 14.8422 27.4789 15.0787 27.2311C15.3153 26.9832 15.4472 26.6538 15.4472 26.3112C15.4472 25.9686 15.3153 25.6392 15.0787 25.3914C14.8422 25.1435 14.5193 24.9963 14.1771 24.9803C13.8349 24.9963 13.512 25.1435 13.2755 25.3914C13.0389 25.6392 12.907 25.9686 12.907 26.3112C12.907 26.6538 13.0389 26.9832 13.2755 27.2311C13.512 27.4789 13.8349 27.6261 14.1771 27.6421ZM14.1771 23.4288C14.9414 23.4296 15.6741 23.7336 16.2144 24.2741C16.7548 24.8146 17.0585 25.5474 17.059 26.3117C17.0583 27.0758 16.7544 27.8084 16.2141 28.3487C15.6738 28.889 14.9412 29.1929 14.1771 29.1936C13.413 29.1929 12.6804 28.889 12.1401 28.3487C11.5998 27.8084 11.2959 27.0758 11.2952 26.3117C11.2957 25.5474 11.5994 24.8146 12.1398 24.2741C12.6801 23.7336 13.4128 23.4296 14.1771 23.4288ZM26.3235 27.6421C26.6657 27.6261 26.9886 27.4789 27.2252 27.2311C27.4617 26.9832 27.5937 26.6538 27.5937 26.3112C27.5937 25.9686 27.4617 25.6392 27.2252 25.3914C26.9886 25.1435 26.6657 24.9963 26.3235 24.9803C25.9813 24.9963 25.6584 25.1435 25.4219 25.3914C25.1854 25.6392 25.0534 25.9686 25.0534 26.3112C25.0534 26.6538 25.1854 26.9832 25.4219 27.2311C25.6584 27.4789 25.9813 27.6261 26.3235 27.6421ZM26.3235 23.4288C27.0878 23.4296 27.8205 23.7336 28.3609 24.2741C28.9012 24.8146 29.205 25.5474 29.2055 26.3117C29.2047 27.0758 28.9008 27.8084 28.3605 28.3487C27.8202 28.889 27.0876 29.1929 26.3235 29.1936C25.5594 29.1929 24.8268 28.889 24.2865 28.3487C23.7462 27.8084 23.4424 27.0758 23.4416 26.3117C23.4421 25.5474 23.7459 24.8146 24.2862 24.2741C24.8265 23.7336 25.5593 23.4296 26.3235 23.4288Z" fill="#292F38"/>
</g>
<defs>
<clipPath id="clip0_1_15232">
<rect width="44" height="42" fill="white" transform="translate(0.0195312)"/>
</clipPath>
</defs>
</svg>
