<svg width="25" height="24" viewBox="0 0 25 24" fill="none" xmlns="http://www.w3.org/2000/svg">
<g clip-path="url(#clip0_1_15244)">
<path d="M14.1965 8.982C14.1965 8.568 14.5325 8.232 14.9465 8.232C15.0951 8.2318 15.2405 8.2757 15.3641 8.35815C15.4878 8.44059 15.5842 8.55787 15.6412 8.69514C15.6981 8.83241 15.7131 8.98349 15.6841 9.12927C15.6552 9.27504 15.5837 9.40895 15.4786 9.51404C15.3735 9.61913 15.2396 9.69067 15.0938 9.71962C14.948 9.74856 14.7969 9.73361 14.6597 9.67664C14.5224 9.61968 14.4051 9.52326 14.3227 9.39961C14.2402 9.27596 14.1963 9.13062 14.1965 8.982ZM22.3375 22.318C22.3955 22.2603 22.4414 22.1918 22.4726 22.1162C22.5038 22.0407 22.5198 21.9597 22.5195 21.878C22.5201 21.7962 22.5043 21.7152 22.473 21.6396C22.4417 21.564 22.3957 21.4955 22.3375 21.438L18.4975 17.598C18.2195 17.904 17.9235 18.2 17.6175 18.478L21.4575 22.318C21.5764 22.4305 21.7339 22.4932 21.8975 22.4932C22.0612 22.4932 22.2187 22.4305 22.3375 22.318ZM17.4355 16.536L16.5565 15.656C16.2815 15.968 15.9875 16.262 15.6765 16.537L16.5555 17.417C16.8645 17.14 17.1595 16.845 17.4355 16.536ZM9.45953 1.5C5.08153 1.5 1.51953 5.062 1.51953 9.44C1.51953 13.817 5.08153 17.379 9.45853 17.379C11.1312 17.3828 12.7615 16.8532 14.1125 15.867C14.7929 15.3731 15.3912 14.7751 15.8855 14.095C16.8715 12.7435 17.4011 11.1129 17.3975 9.44C17.3975 5.063 13.8355 1.501 9.45753 1.501L9.45953 1.5ZM23.3985 20.378C23.7995 20.78 24.0215 21.312 24.0215 21.878C24.0215 22.443 23.7995 22.976 23.3985 23.378C22.9985 23.779 22.4655 24.001 21.8985 24.001C21.3315 24.001 20.7985 23.779 20.3985 23.378L14.4595 17.44C12.9616 18.3817 11.2278 18.8802 9.45853 18.878C4.25353 18.879 0.0195312 14.643 0.0195312 9.439C0.0195312 4.234 4.25353 0 9.45853 0C14.6625 0 18.8985 4.233 18.8985 9.438C18.8985 11.218 18.4015 12.941 17.4605 14.439L23.3975 20.377L23.3985 20.378ZM9.91653 4.702C9.71778 4.70147 9.52732 4.62229 9.38678 4.48175C9.24625 4.34121 9.16706 4.15075 9.16653 3.952C9.16653 3.538 9.50253 3.201 9.91653 3.201C11.1065 3.201 12.2515 3.561 13.2265 4.245C14.1734 4.90581 14.9006 5.83507 15.3145 6.913C15.3579 7.02674 15.373 7.14931 15.3586 7.27018C15.3442 7.39105 15.3006 7.50661 15.2317 7.60693C15.1627 7.70725 15.0704 7.78934 14.9628 7.84613C14.8551 7.90293 14.7353 7.93274 14.6135 7.933C14.462 7.9327 14.314 7.88662 14.1891 7.80078C14.0642 7.71495 13.9681 7.59338 13.9135 7.452C13.6002 6.64543 13.0515 5.95181 12.3386 5.46136C11.6257 4.9709 10.7818 4.70631 9.91653 4.702Z" fill="#292F38"/>
</g>
<defs>
<clipPath id="clip0_1_15244">
<rect width="24" height="24" fill="white" transform="translate(0.0195312)"/>
</clipPath>
</defs>
</svg>
